<svg height="512pt" viewBox="0 0 512 512" width="512pt" xmlns="http://www.w3.org/2000/svg"><path d="m198.398438 229.707031c4.140624.929688 8.371093 1.410157 12.613281 1.425781 12.421875.367188 24.398437-4.644531 32.855469-13.75 1.417968-1.761718 2.085937-4.015624 1.847656-6.265624-.144532-1.351563-3.851563-33.023438-34.511719-39.757813-32.976563-7.21875-46.460937 12.664063-48.988281 24.199219-.285156 1.292968-.261719 2.632812.0625 3.917968 5.457031 16.027344 19.382812 27.683594 36.121094 30.230469zm9.144531-41.683593c10.210937 2.550781 18.101562 10.664062 20.371093 20.945312-7.613281 5.0625-17.058593 6.550781-25.859374 4.074219-9.570313-1.4375-17.898438-7.3125-22.46875-15.84375 2.003906-4.640625 8.449218-13.433594 27.957031-9.175781zm0 0"/><path d="m300.867188 231.132812c4.242187-.015624 8.472656-.496093 12.613281-1.425781 16.738281-2.546875 30.667969-14.203125 36.125-30.230469.324219-1.285156.347656-2.625.0625-3.917968-2.527344-11.523438-15.996094-31.441406-48.988281-24.199219-30.660157 6.730469-34.371094 38.40625-34.515626 39.757813-.238281 2.25.425782 4.503906 1.847657 6.265624 8.457031 9.105469 20.433593 14.117188 32.855469 13.75zm3.464843-43.109374c19.558594-4.257813 26 4.601562 27.96875 9.160156-4.578125 8.53125-12.90625 14.40625-22.480469 15.859375-8.800781 2.46875-18.242187.980469-25.855468-4.074219 2.273437-10.277344 10.160156-18.382812 20.367187-20.945312zm0 0"/><path d="m384 349.867188h-14.730469c14.773438-12.914063 23.253907-31.578126 23.265625-51.199219v-119.46875c0-27.847657-14.167968-179.199219-76.800781-179.199219-4.714844 0-8.535156 3.820312-8.535156 8.535156v68.265625c-.003907 4.710938-3.820313 8.527344-8.53125 8.53125h-85.335938c-4.710937-.003906-8.527343-3.820312-8.53125-8.53125v-68.265625c0-4.714844-3.820312-8.535156-8.535156-8.535156-62.632813 0-76.800781 151.351562-76.800781 179.199219v119.46875c.011718 19.621093 8.492187 38.285156 23.265625 51.199219h-14.730469c-70.660156.078124-127.921875 57.339843-128 128v25.597656c0 4.714844 3.820312 8.535156 8.535156 8.535156h494.929688c4.714844 0 8.535156-3.820312 8.535156-8.535156v-25.597656c-.078125-70.660157-57.339844-127.921876-128-128zm104.820312 92c-15.082031-14.320313-41.507812-23.507813-71.074218-23.710938l-3.230469-10.433594c-3.15625-10.488281-16.863281-15.1875-29.042969-15.1875h-52.671875v-25.601562h51.199219c47.339844.078125 89.425781 30.164062 104.820312 74.933594zm-292.554687-100.535157v-59.730469c.003906-4.710937 3.824219-8.53125 8.535156-8.535156h102.398438c4.710937.003906 8.53125 3.824219 8.535156 8.535156v59.730469c-.003906 4.710938-3.824219 8.53125-8.535156 8.535157h-102.398438c-4.710937-.003907-8.53125-3.824219-8.535156-8.535157zm0 25.601563h119.46875v25.601562h-119.46875zm-59.730469-68.265625v-119.46875c0-35.039063 16.035156-144.664063 51.199219-160.273438v57.875c.015625 14.132813 11.46875 25.582031 25.597656 25.597657h85.335938c14.128906-.015626 25.582031-11.464844 25.597656-25.597657v-57.875c35.164063 15.609375 51.199219 125.234375 51.199219 160.273438v119.46875c-.039063 25.492187-18.820313 47.074219-44.0625 50.640625.890625-2.566406 1.363281-5.257813 1.398437-7.976563v-59.730469c-.015625-14.132812-11.46875-25.585937-25.601562-25.601562h-102.398438c-14.132812.015625-25.585937 11.46875-25.601562 25.601562v59.730469c.035156 2.71875.507812 5.410157 1.398437 7.976563-25.242187-3.566406-44.019531-25.148438-44.0625-50.640625zm-8.535156 68.265625h51.199219v25.601562h-52.621094c-12.179687 0-25.882813 4.699219-29.019531 15.125l-3.253906 10.496094c-29.589844.1875-56.035157 9.386719-71.128907 23.714844 15.394531-44.769532 57.480469-74.859375 104.824219-74.9375zm-107.644531 115.792968 7.933593-19.371093c6.152344-14.984375 31.636719-26.519531 60.679688-27.992188l-18.457031 59.570313h-53.246094c.425781-4.199219 1.464844-8.3125 3.089844-12.207032zm175.910156-13.394531c0-12.082031 25.546875-25.597656 59.734375-25.597656s59.734375 13.515625 59.734375 25.597656c0 12.085938-25.546875 25.601563-59.734375 25.601563s-59.734375-13.515625-59.734375-25.601563zm213.335937 25.601563h-91.429687c8.675781-5.714844 14.109375-15.222656 14.628906-25.601563 0-24.324219-33.015625-42.664062-76.800781-42.664062s-76.800781 18.339843-76.800781 42.664062c.519531 10.378907 5.953125 19.886719 14.628906 25.601563h-105.457031l20.070312-64.902344.058594-.1875 5.183594-16.761719c3.753906-2.644531 8.320312-3.878906 12.894531-3.480469h258.894531c4.457032-.28125 8.894532.800782 12.71875 3.105469l25.4375 82.226563zm31.894532 0-18.425782-59.5625c29.027344 1.480468 54.492188 13.011718 60.636719 27.980468l7.945313 19.398438c1.625 3.886719 2.664062 7.992188 3.085937 12.183594zm0 0"/><path d="m273.066406 298.667969h-34.132812c-4.714844 0-8.535156 3.820312-8.535156 8.53125 0 4.714843 3.820312 8.535156 8.535156 8.535156h34.132812c4.714844 0 8.535156-3.820313 8.535156-8.535156 0-4.710938-3.820312-8.53125-8.535156-8.53125zm0 0"/></svg>