<svg height="512pt" viewBox="0 0 512.00014 512" width="512pt" xmlns="http://www.w3.org/2000/svg"><path d="m499.890625 429.242188c-10.015625-37.457032-44.359375-63.199219-83.121094-62.308594h-1.007812l-1.046875-5.074219c-3.714844-12.863281-15.882813-21.40625-29.242188-20.527344h-52.671875v-26.191406c33.074219-4.214844 58.265625-31.695313 59.597657-65.007813 32.332031-49.777343 43.363281-114.039062 27.347656-160.703124-8.230469-23.980469-22.605469-39.992188-41.578125-46.316407-5.269531-2.320312-10.03125-5.652343-14.007813-9.8125-14.898437-13.265625-37.410156-33.300781-108.160156-33.300781-103.675781 0-170.667969 40.191406-170.667969 102.398438 0 63.503906.054688 134.941406 34.4375 151.054687 2.859375 31.96875 27.589844 57.636719 59.429688 61.6875v26.191406h-52.621094c-13.339844-.878906-25.5 7.640625-29.226563 20.480469l-1.058593 5.121094h-1.0625c-38.757813-.890625-73.101563 24.847656-83.121094 62.300781l-7.933594 32.148437c-2.785156 11.285157-4.1874998 22.867188-4.175781 34.488282v7.59375c0 4.714844 3.820312 8.535156 8.535156 8.535156h494.929688c4.714844 0 8.535156-3.820312 8.535156-8.535156v-7.59375c.011719-11.617188-1.390625-23.195313-4.175781-34.472656zm-397.492187-326.84375c0-51.839844 60.292968-85.332032 153.601562-85.332032 64.257812 0 83.070312 16.75 96.8125 28.976563 5.644531 5.773437 12.441406 10.289062 19.953125 13.25 17.355469 5.789062 26.351563 22.589843 30.839844 35.671875 11.496093 33.519531 6.714843 79.136718-11.070313 119.164062v-43.460937c.046875-6.792969-.726562-13.5625-2.304687-20.167969-5.898438-23.507812-26.601563-42.542969-55.421875-50.933594-16.195313-4.449218-32.980469-6.367187-49.761719-5.691406-14.550781-.351562-27.949219 7.867188-34.234375 20.992188-1.003906 2.488281-1.738281 5.078124-2.191406 7.726562-.660156 9.453125-5.644532 18.078125-13.503906 23.375-5.613282 3.246094-12.125 4.582031-18.5625 3.800781 7.203124-14.589843 5.09375-32.058593-5.375-44.511719-.078126-.082031-.171876-.140624-.257813-.230468-.035156-.035156-.046875-.089844-.085937-.125-15.082032-15.085938-16.351563-30.378906-12.511719-39.660156 4.101562-9.175782 13.519531-14.792969 23.542969-14.042969 4.710937 0 8.53125-3.820313 8.53125-8.53125 0-4.714844-3.820313-8.535157-8.53125-8.535157-16.949219-.8125-32.621094 8.988282-39.308594 24.585938-4.25 10.933594-4.148438 23.085938.285156 33.949219-.429688 0-.816406-.101563-1.242188-.085938-17.015624 1.480469-32.597656 10.132813-42.851562 23.792969-12.152344 15.523438-18.921875 34.578125-19.285156 54.292969v60.78125c-17-22.171875-17.066406-85.082031-17.066406-129.050781zm34.136718 145.066406v-76.796875c.410156-15.925781 5.917969-31.300781 15.714844-43.863281 7.15625-9.644532 18.011719-15.867188 29.953125-17.167969.285156-.007813.570313-.015625.851563-.015625 5.90625-.074219 11.539062 2.488281 15.371093 6.984375 11.957031 13.425781-.121093 31.375-.621093 32.101562-2.40625 3.4375-1.953126 8.117188 1.066406 11.03125.65625.632813 16.324218 15.28125 43.882812 1.492188 12.613282-7.472657 20.96875-20.457031 22.542969-35.035157.242187-1.40625.574219-2.792968.996094-4.15625 3.640625-7.265624 11.277343-11.644531 19.386719-11.117187 14.96875-.632813 29.945312 1.070313 44.394531 5.042969 22.894531 6.664062 39.191406 21.125 43.582031 38.625 1.25 5.265625 1.855469 10.664062 1.808594 16.078125v76.796875c-.027344 28.265625-22.933594 51.171875-51.199219 51.203125h-136.53125c-28.265625-.03125-51.171875-22.9375-51.199219-51.203125zm59.730469 68.269531h119.46875v25.597656h-119.46875zm-175.523437 149.75 7.941406-32.171875c7.902344-28.890625 34.089844-48.96875 64.042968-49.109375l-22.878906 110.730469h-52.777344c.0625-9.925782 1.292969-19.8125 3.671876-29.449219zm143.605468-3.359375 26.917969-26.925781h129.46875l26.917969 26.925781-19.683594 32.808594h-143.9375zm245.253906 32.808594h-61.730468l17.84375-29.742188c2.019531-3.355468 1.492187-7.65625-1.277344-10.425781l-34.132812-34.132813c-1.601563-1.601562-3.773438-2.5-6.039063-2.5h-136.53125c-2.265625 0-4.433594.902344-6.035156 2.5l-34.132813 34.132813c-2.769531 2.769531-3.296875 7.070313-1.28125 10.425781l17.84375 29.742188h-76.855468l26.800781-129.707032c2.277343-4.714843 7.304687-7.460937 12.503906-6.828124h258.894531c5.210938-.632813 10.25 2.128906 12.515625 6.867187l26.742188 129.667969zm32.550782 0-22.832032-110.730469c29.933594.160156 56.101563 20.238281 64 49.113281l7.933594 32.183594c2.382813 9.632812 3.617188 19.511719 3.679688 29.433594zm0 0"/><path d="m213.332031 213.332031c4.714844 0 8.535157-3.820312 8.535157-8.53125v-17.066406c0-4.714844-3.820313-8.535156-8.535157-8.535156-4.710937 0-8.53125 3.820312-8.53125 8.535156v17.066406c0 4.710938 3.820313 8.53125 8.53125 8.53125zm0 0"/><path d="m298.667969 213.332031c4.710937 0 8.53125-3.820312 8.53125-8.53125v-17.066406c0-4.714844-3.820313-8.535156-8.53125-8.535156-4.714844 0-8.535157 3.820312-8.535157 8.535156v17.066406c0 4.710938 3.820313 8.53125 8.535157 8.53125zm0 0"/><path d="m213.332031 247.464844c0 1.042968.484375 25.601562 42.667969 25.601562s42.667969-24.558594 42.667969-25.601562c.023437-4.753906-3.769531-8.65625-8.527344-8.765625-2.234375-.054688-4.398437.792969-6.003906 2.355469-1.601563 1.558593-2.507813 3.699218-2.515625 5.9375-.421875 3.121093-6.3125 9.007812-25.621094 9.007812s-25.199219-5.886719-25.601562-8.535156c0-4.710938-3.820313-8.53125-8.53125-8.53125-4.714844 0-8.535157 3.820312-8.535157 8.53125zm0 0"/><path d="m349.867188 375.464844h-59.734376c-11.761718-.535156-23.480468 1.808594-34.132812 6.828125-10.652344-5.019531-22.371094-7.363281-34.132812-6.828125h-59.734376c-4.710937 0-8.53125 3.824218-8.53125 8.535156 0 4.714844 3.820313 8.535156 8.53125 8.535156h59.734376c9.765624-.9375 19.578124 1.167969 28.101562 6.03125 1.578125 1.554688 3.71875 2.417969 5.9375 2.390625 2.167969 0 4.265625-.773437 5.910156-2.183593.070313-.066407 7.453125-6.238282 28.316406-6.238282h59.734376c4.710937 0 8.53125-3.820312 8.53125-8.535156 0-4.710938-3.820313-8.535156-8.53125-8.535156zm0 0"/></svg>